<?xml version="1.0" encoding="UTF-8"?>
<!DOCTYPE svg PUBLIC "-//W3C//DTD SVG 1.1//EN" "http://www.w3.org/Graphics/SVG/1.1/DTD/svg11.dtd">
<!-- Creator: CorelDRAW -->
<svg xmlns="http://www.w3.org/2000/svg" xml:space="preserve" width="100px" height="98px" version="1.1" style="shape-rendering:geometricPrecision; text-rendering:geometricPrecision; image-rendering:optimizeQuality; fill-rule:evenodd; clip-rule:evenodd"
viewBox="0 0 106.35 104.57"
 xmlns:xlink="http://www.w3.org/1999/xlink"
 xmlns:xodm="http://www.corel.com/coreldraw/odm/2003">
 <defs>
  <style type="text/css">
   <![CDATA[
    .fil1 {fill:#003399;fill-rule:nonzero}
    .fil0 {fill:#6666CC;fill-rule:nonzero}
    .fil3 {fill:gold;fill-rule:nonzero}
    .fil2 {fill:yellow;fill-rule:nonzero}
   ]]>
  </style>
 </defs>
 <g id="Layer_x0020_1">
  <metadata id="CorelCorpID_0Corel-Layer"/>
  <g id="_2356756272784">
   <path class="fil0" d="M58.89 42.58l4.15 -0.02c2.62,-2.75 5.8,-6.02 9.94,-5.78 4.17,-0.22 7.32,2.99 9.95,5.78 1.76,0.07 5.16,-0.19 6.8,0.42l0 -26.36 -73.11 0 0 42.09 30.29 0 2.06 -2.08 0.04 -4.14c0.05,-5.44 4.44,-9.84 9.88,-9.9l0 -0.01zm-27.87 -9.23c-4.36,-0.07 -4.38,-6.58 0,-6.65l44.31 0c4.35,0.08 4.38,6.56 0,6.65l-44.31 0z"/>
   <path class="fil1" d="M103.03 0l-99.71 0c0,0 0,0 -0.01,0 -1.82,0 -3.3,1.48 -3.31,3.3l0 68.71c0.01,1.83 1.49,3.32 3.32,3.32l44.47 0c-2.94,-2.6 -5.12,-6.01 -4.5,-9.97l-30 0c-1.83,0 -3.31,-1.49 -3.32,-3.32l0 -48.75c0,0 0,0 0,0 0,-1.83 1.49,-3.32 3.32,-3.32 0,0 0,0 0,0l79.77 0c1.83,0.01 3.32,1.49 3.32,3.32l0 35.92c0.84,1.88 0.56,5.38 0.62,7.42l2.93 2.95c4.67,4.93 3.25,11.67 -1.75,15.75l4.85 0c1.83,-0.01 3.31,-1.49 3.32,-3.32l0 -68.71c-0.01,-1.82 -1.5,-3.3 -3.32,-3.3l0 0z"/>
   <path class="fil2" d="M92.1 90.53l-9.17 0.07 -4.23 4.16 3.3 9.08c0.16,0.44 0.57,0.73 1.04,0.73 0.43,0 0.82,-0.25 1,-0.64l3.08 -6.6 6.57 3.08c0.14,0.07 0.31,0.1 0.47,0.1 0.61,0 1.11,-0.49 1.11,-1.11 0,-0.12 -0.03,-0.25 -0.07,-0.37l-3.1 -8.5z"/>
   <path class="fil2" d="M53.88 90.53l-3.09 8.5c-0.04,0.12 -0.07,0.25 -0.07,0.37 0,0.62 0.5,1.11 1.11,1.11 0.16,0 0.32,-0.03 0.47,-0.1l6.57 -3.08 3.08 6.6c0.18,0.39 0.57,0.64 1,0.64 0.47,0 0.88,-0.29 1.04,-0.73l3.3 -9.05 -4.25 -4.19 -9.16 -0.07z"/>
   <path class="fil3" d="M90.38 59.37l-0.05 -6.84c-0.01,-1.81 -1.48,-3.28 -3.29,-3.29l-6.85 -0.05 -4.87 -4.81c-0.62,-0.61 -1.46,-0.95 -2.33,-0.95 -0.87,0 -1.71,0.34 -2.33,0.95l-4.87 4.81 -6.85 0.05c-1.81,0.01 -3.28,1.47 -3.29,3.29l-0.05 6.84 -4.8 4.88c-0.61,0.62 -0.96,1.45 -0.96,2.33 0,0.87 0.35,1.7 0.96,2.32l4.8 4.88 0.05 6.84c0.01,1.82 1.48,3.28 3.29,3.3l6.85 0.05 4.87 4.8c0.62,0.61 1.46,0.95 2.33,0.95 0.87,0 1.71,-0.34 2.33,-0.95l4.87 -4.8 6.85 -0.05c1.81,-0.02 3.28,-1.48 3.29,-3.3l0.05 -6.84 4.8 -4.88c0.62,-0.62 0.96,-1.45 0.96,-2.32 0,-0.88 -0.34,-1.71 -0.95,-2.33l-4.81 -4.88zm-17.39 16.07c-11.71,-0.36 -11.71,-17.37 0,-17.73 11.72,0.36 11.71,17.37 0,17.73z"/>
  </g>
 </g>
</svg>
