<?xml version="1.0" encoding="UTF-8"?>
<!DOCTYPE svg PUBLIC "-//W3C//DTD SVG 1.1//EN" "http://www.w3.org/Graphics/SVG/1.1/DTD/svg11.dtd">
<!-- Creator: CorelDRAW -->
<svg xmlns="http://www.w3.org/2000/svg" xml:space="preserve" width="250px" height="199px" version="1.1" style="shape-rendering:geometricPrecision; text-rendering:geometricPrecision; image-rendering:optimizeQuality; fill-rule:evenodd; clip-rule:evenodd"
viewBox="0 0 119.22 95.02"
 xmlns:xlink="http://www.w3.org/1999/xlink"
 xmlns:xodm="http://www.corel.com/coreldraw/odm/2003">
 <defs>
  <style type="text/css">
   <![CDATA[
    .fil1 {fill:#003595}
    .fil0 {fill:#6067C8}
   ]]>
  </style>
 </defs>
 <g id="Layer_x0020_1">
  <metadata id="CorelCorpID_0Corel-Layer"/>
  <g id="_2693916490384">
   <path class="fil0" d="M17 54.74l0 35.62c0,2.42 2.24,4.66 4.66,4.66l28.64 0 0 -28.41 18.62 0 0 28.41 28.64 0c2.56,0 4.66,-2.62 4.66,-4.19l0 -36.09c0,-0.81 -4.39,-4.09 -4.99,-4.56 -4.21,-3.29 -9.08,-7.67 -13.41,-11.04l-22.71 -18.73c-2.14,-1.72 -0.94,-1.6 -6.82,3.16 -7.94,6.42 -16.33,13.67 -24.15,19.86 -0.96,0.75 -1.76,1.52 -2.66,2.23l-9.32 7.68c-0.4,0.3 -1.16,0.73 -1.16,1.4z"/>
   <path class="fil1" d="M0 47.99c0,1.53 1.61,3.1 2.86,4.58 4.17,4.92 3.78,4.48 11.04,-1.63 1.1,-0.93 2.09,-1.71 3.16,-2.66 5.65,-5.03 13.87,-11.23 19.56,-16.3l22.99 -19.15c0.56,0.37 0.89,0.76 1.53,1.26l26.02 21.72c0.59,0.49 1.05,0.89 1.65,1.37l12.98 10.77c0.54,0.44 1.11,0.91 1.65,1.38 0.61,0.53 1.03,0.85 1.64,1.39l4.96 4.12c1.73,1.38 2.75,1.67 4.59,-0.27 0.44,-0.47 0.46,-0.58 0.83,-1.03 0.33,-0.41 0.55,-0.56 0.89,-0.97 0.58,-0.68 1.01,-1.21 1.57,-1.92 0.78,-0.99 1.2,-1.74 1.3,-2.39l0 -0.61c-0.21,-1.24 -1.7,-2.2 -3.99,-4.06l-11.44 -9.51c-1.15,-1.03 -1.59,-0.59 -1.59,-2.61l0 -29.34c-0.16,-1.01 -1.11,-1.88 -2.31,-1.88l-14.43 0c-2.87,0 -2.33,4.07 -2.33,6.99 0,3.18 0,6.36 0,9.54 -0.55,-0.36 -0.81,-0.51 -1.34,-0.99 -0.56,-0.5 -0.87,-0.66 -1.4,-1.16 -0.9,-0.84 -1.71,-1.47 -2.65,-2.24 -2.08,-1.68 -12.33,-10.51 -13.67,-11.25 -3.15,-1.72 -6.83,-1.47 -9.78,0.55l-32.92 27.38c-5.56,4.85 -13.06,10.6 -18.28,15.25 -0.97,0.87 -3.09,2.08 -3.09,3.67z"/>
  </g>
 </g>
</svg>
