<?xml version="1.0" encoding="UTF-8"?>
<!DOCTYPE svg PUBLIC "-//W3C//DTD SVG 1.1//EN" "http://www.w3.org/Graphics/SVG/1.1/DTD/svg11.dtd">
<!-- Creator: CorelDRAW -->
<svg xmlns="http://www.w3.org/2000/svg" xml:space="preserve" width="250px" height="250px" version="1.1" style="shape-rendering:geometricPrecision; text-rendering:geometricPrecision; image-rendering:optimizeQuality; fill-rule:evenodd; clip-rule:evenodd"
viewBox="0 0 97.66 97.66"
 xmlns:xlink="http://www.w3.org/1999/xlink"
 xmlns:xodm="http://www.corel.com/coreldraw/odm/2003">
 <defs>
  <style type="text/css">
   <![CDATA[
    .str0 {stroke:#FEFEFE;stroke-width:0.76;stroke-miterlimit:2.61313}
    .fil0 {fill:#5B66AD}
    .fil1 {fill:#003595;fill-rule:nonzero}
   ]]>
  </style>
 </defs>
 <g id="Layer_x0020_1">
  <metadata id="CorelCorpID_0Corel-Layer"/>
  <g id="_3016479125664">
   <path class="fil0" d="M72.1 73.38c6.51,-6.18 10.57,-14.92 10.57,-24.6 0,-18.73 -15.19,-33.92 -33.92,-33.92 -5.14,0 -10.01,1.15 -14.38,3.19l4.72 8.51c2.96,-1.29 6.23,-2 9.66,-2 13.38,0 24.23,10.84 24.23,24.22l-14.54 0 13.66 24.6zm-8.97 6.13l-4.72 -8.5c-2.96,1.28 -6.23,2 -9.66,2 -13.38,0 -24.23,-10.85 -24.23,-24.23l14.54 0 -13.67 -24.59c-6.5,6.18 -10.56,14.91 -10.56,24.59 0,18.73 15.19,33.92 33.92,33.92 5.14,0 10.01,-1.14 14.38,-3.19z"/>
   <path class="fil1 str0" d="M48.83 97.28c-26.76,0 -48.45,-21.69 -48.45,-48.45 0,-26.76 21.69,-48.45 48.45,-48.45 26.76,0 48.45,21.69 48.45,48.45 0,26.76 -21.69,48.45 -48.45,48.45zm23.36 -23.85c6.5,-6.18 10.56,-14.92 10.56,-24.6 0,-18.73 -15.19,-33.92 -33.92,-33.92 -5.14,0 -10.01,1.15 -14.38,3.19l4.72 8.5c2.96,-1.28 6.23,-2 9.66,-2 13.38,0 24.23,10.85 24.23,24.23l-14.54 0 13.67 24.6zm-8.98 6.13l-4.72 -8.5c-2.96,1.28 -6.23,2 -9.66,2 -13.38,0 -24.23,-10.85 -24.23,-24.23l14.54 0 -13.66 -24.59c-6.51,6.18 -10.57,14.91 -10.57,24.59 0,18.73 15.19,33.92 33.92,33.92 5.14,0 10.01,-1.15 14.38,-3.19z"/>
  </g>
 </g>
</svg>
